<?xml version="1.0" standalone="no"?>
<!DOCTYPE svg PUBLIC "-//W3C//DTD SVG 20010904//EN"
 "http://www.w3.org/TR/2001/REC-SVG-20010904/DTD/svg10.dtd">
<svg version="1.0" xmlns="http://www.w3.org/2000/svg"
 width="1968.000000pt" height="1968.000000pt" viewBox="0 0 1968.000000 1968.000000"
 preserveAspectRatio="xMidYMid meet">
<metadata>
Created by potrace 1.11, written by Peter Selinger 2001-2013
</metadata>
<g transform="translate(0.000000,1968.000000) scale(0.100000,-0.100000)"
fill="#000000" stroke="none">
<path d="M7812 19060 c-147 -27 -302 -119 -388 -233 -152 -200 -174 -445 -62
-675 42 -86 167 -214 255 -260 182 -96 415 -95 598 1 84 44 211 174 253 257
123 247 82 532 -104 725 -137 143 -362 218 -552 185z"/>
<path d="M6205 17806 c-197 -49 -335 -224 -335 -426 0 -92 30 -184 83 -257
158 -214 454 -242 652 -61 155 141 184 390 67 561 -107 155 -290 227 -467 183z"/>
<path d="M8925 16541 c-223 -59 -1465 -404 -1925 -535 -261 -74 -815 -230
-1230 -345 -628 -176 -770 -219 -845 -256 -168 -83 -281 -197 -365 -370 -67
-138 -84 -212 -83 -360 1 -143 23 -239 83 -360 102 -206 302 -365 535 -426 89
-23 268 -29 342 -12 35 9 42 8 46 -6 73 -266 660 -2368 663 -2376 3 -6 -47
-52 -110 -103 -572 -462 -1062 -1031 -1436 -1667 -112 -191 -303 -583 -388
-795 -214 -536 -343 -1060 -409 -1670 -26 -238 -26 -942 0 -1180 84 -771 271
-1426 597 -2085 307 -622 665 -1121 1155 -1610 1004 -1005 2270 -1603 3699
-1751 207 -21 757 -30 971 -15 404 28 722 78 1098 172 1238 311 2347 1009
3174 1999 822 983 1303 2187 1393 3480 13 186 13 614 0 800 -122 1762 -978
3354 -2380 4427 -944 722 -2095 1150 -3293 1224 l-198 13 -14 50 c-51 177
-605 2179 -605 2185 0 4 46 30 103 59 124 62 213 134 289 233 112 147 158 273
165 455 6 142 -6 225 -48 336 -41 107 -112 210 -201 294 -94 89 -185 143 -308
185 -84 29 -110 33 -230 36 -124 3 -144 1 -245 -26z m350 -609 c117 -81 119
-252 4 -344 -29 -23 -92 -45 -330 -110 -162 -44 -295 -82 -297 -83 -1 -1 196
-715 437 -1587 242 -872 443 -1596 446 -1609 l6 -24 322 -1 c333 -1 508 -13
787 -54 1556 -231 2936 -1116 3803 -2440 300 -458 531 -963 681 -1487 285
-994 285 -2052 0 -3046 -391 -1367 -1308 -2536 -2554 -3257 -161 -93 -489
-253 -655 -320 -936 -378 -1935 -495 -2925 -344 -1753 268 -3275 1374 -4079
2964 -312 616 -493 1245 -568 1970 -21 205 -24 770 -5 965 45 469 122 848 254
1255 362 1112 1085 2096 2037 2774 81 57 156 109 169 117 17 10 22 21 19 39
-4 30 -918 3303 -924 3309 -2 3 -81 -17 -176 -43 -463 -128 -425 -120 -485
-106 -42 9 -64 22 -102 58 -82 80 -92 182 -28 275 46 65 52 67 893 302 445
124 980 275 1190 335 463 132 1890 527 1925 532 45 6 114 -11 155 -40z"/>
<path d="M6934 14445 c-231 -50 -405 -255 -421 -495 -18 -270 187 -521 460
-562 348 -53 662 261 609 610 -47 306 -346 513 -648 447z"/>
<path d="M8365 12766 c-116 -28 -235 -117 -288 -213 -76 -142 -74 -319 6 -455
32 -54 121 -139 175 -167 276 -141 603 25 654 332 51 307 -242 577 -547 503z"/>
<path d="M9955 11538 c2 -7 29 -157 61 -333 31 -176 57 -321 59 -323 1 -1 138
40 303 93 165 52 305 95 310 95 10 0 72 -159 72 -183 0 -7 -29 -53 -65 -102
-35 -50 -65 -96 -65 -104 0 -12 1177 -3410 1184 -3418 1 -2 60 15 131 37 71
22 132 37 135 33 14 -16 139 -392 132 -396 -8 -5 -2491 -778 -2505 -781 -10
-1 -129 395 -122 403 4 3 63 24 133 47 106 34 126 43 124 59 -3 14 -219 785
-238 846 -4 14 -12 15 -57 6 -169 -31 -407 44 -538 170 l-37 35 -122 -11
c-661 -61 -1207 -486 -1424 -1110 -68 -195 -80 -277 -80 -536 0 -200 2 -243
22 -328 99 -442 345 -807 709 -1049 132 -88 125 -87 229 -34 332 167 717 146
1022 -54 143 -94 255 -214 335 -360 l34 -61 12 82 c41 278 188 493 421 618 54
29 3039 965 3048 956 7 -6 122 -418 122 -435 0 -11 -316 -113 -1248 -400 -686
-212 -1274 -398 -1307 -414 -89 -43 -211 -169 -258 -267 -40 -81 -81 -222 -66
-227 5 -2 574 173 1265 388 836 260 1259 388 1264 380 3 -6 21 -65 40 -131 24
-88 29 -123 21 -128 -6 -4 -588 -187 -1292 -406 l-1281 -399 6 -29 c3 -16 19
-57 35 -91 17 -33 27 -64 23 -67 -4 -4 -105 -37 -224 -74 l-217 -68 -65 52
c-55 44 -144 148 -193 227 -9 15 -12 -54 -12 -323 l-1 -343 1676 0 1677 0 72
65 c89 79 304 313 423 460 591 729 949 1598 1059 2567 24 216 24 780 0 996
-130 1154 -608 2154 -1412 2957 -833 832 -1921 1329 -3100 1415 -189 14 -235
13 -230 -2z"/>
<path d="M8575 11384 c-1835 -492 -3231 -2026 -3544 -3894 -53 -316 -65 -463
-65 -820 0 -357 12 -504 65 -820 136 -810 486 -1588 1004 -2232 130 -162 312
-361 431 -472 l72 -66 603 2 604 3 5 405 c5 339 9 418 24 484 22 98 57 193 98
266 40 70 14 50 -61 -50 -140 -187 -241 -466 -241 -671 0 -41 -4 -59 -13 -59
-19 0 -213 110 -314 178 -130 87 -234 173 -357 291 -579 563 -858 1346 -765
2151 120 1045 889 1927 1908 2191 218 56 334 71 612 76 l256 5 13 37 c50 140
189 276 347 338 61 24 81 27 198 27 110 1 139 -3 189 -22 171 -64 290 -178
363 -350 34 -81 20 -11 -18 89 -116 304 -395 510 -724 535 l-81 7 -143 516
c-79 284 -150 536 -157 561 l-13 45 -111 38 c-62 22 -114 46 -119 55 -19 39
-52 185 -43 191 6 3 146 48 311 100 255 80 299 96 292 110 -4 9 -70 152 -146
319 l-139 302 -46 0 -46 0 -42 85 c-29 60 -47 85 -59 84 -10 0 -76 -16 -148
-35z"/>
<path d="M9853 11155 c0 -177 -19 -272 -64 -335 -34 -47 -42 -47 79 -5 43 14
66 27 65 36 -6 43 -74 436 -77 444 -1 6 -3 -57 -3 -140z"/>
<path d="M10541 10458 c-1 -11 790 -2770 816 -2848 35 -101 43 -251 19 -335
-20 -67 -37 -96 -85 -147 -19 -21 -32 -38 -27 -38 7 0 398 121 403 125 3 1
-1090 3161 -1112 3215 -8 19 -14 32 -14 28z"/>
<path d="M9381 8465 c-141 -40 -226 -153 -225 -300 2 -170 155 -308 326 -292
152 14 261 124 275 277 19 203 -180 369 -376 315z"/>
<path d="M8390 7948 c-477 -45 -951 -269 -1295 -613 -331 -331 -532 -738 -606
-1230 -19 -123 -16 -438 5 -574 74 -481 302 -922 644 -1241 126 -119 160 -140
93 -60 -134 160 -295 448 -374 668 -137 383 -173 844 -96 1252 137 724 595
1330 1236 1632 167 79 359 136 573 171 47 8 -85 4 -180 -5z"/>
<path d="M8661 4165 c-125 -35 -228 -123 -283 -242 -70 -149 -41 -342 69 -464
207 -229 573 -178 710 98 32 65 37 86 41 163 8 157 -49 281 -167 370 -102 77
-254 107 -370 75z"/>
<path d="M7550 2358 c19 -12 98 -51 175 -88 511 -244 1034 -392 1615 -457 196
-22 761 -25 950 -5 488 51 901 150 1330 317 154 60 384 165 480 218 l65 37
-2325 0 -2325 0 35 -22z"/>
</g>
</svg>
